<?xml version="1.0" encoding="utf-8"?>
<!-- Generator: Adobe Illustrator 22.0.1, SVG Export Plug-In . SVG Version: 6.00 Build 0)  -->
<svg version="1.1" id="圖層_1" xmlns="http://www.w3.org/2000/svg" xmlns:xlink="http://www.w3.org/1999/xlink" x="0px" y="0px"
	 viewBox="0 0 595.3 841.9" style="enable-background:new 0 0 595.3 841.9;" xml:space="preserve">
<style type="text/css">
	.st0{fill:#FFFFFF;}
</style>
<g id="g5918">
	<path id="path4066" class="st0" d="M392.4,274.6c-5.3,0-9.7,4.7-9.7,10.6c0,3.3,1.4,6.3,3.6,8.2c-4.8,3.2-8.4,10.1-9.9,18.6h17.1
		c1.2-6.4,4-11.5,7.6-14c-1.3-1.1-2.2-2.7-2.6-4.5c-0.1,0-0.1-0.1-0.2-0.1c0,0,0.1-0.1,0.1-0.1c-0.1-0.6-0.2-1.1-0.2-1.7
		c0-3,1.5-5.6,3.6-7.1C401.7,279,397.5,274.6,392.4,274.6L392.4,274.6z"/>
	<path id="path4076" class="st0" d="M410.5,285.4c-4.2,0-7.6,3.7-7.6,8.3c0,2.6,1.1,4.9,2.8,6.4c-3.7,2.5-6.6,7.9-7.7,14.5H423
		c-1.1-6.7-4-12-7.7-14.5c1.7-1.5,2.8-3.8,2.8-6.5C418.1,289.1,414.7,285.4,410.5,285.4L410.5,285.4z"/>
</g>
</svg>
