<?xml version="1.0" encoding="utf-8"?>
<!-- Generator: Adobe Illustrator 22.0.1, SVG Export Plug-In . SVG Version: 6.00 Build 0)  -->
<svg version="1.1" id="圖層_1" xmlns="http://www.w3.org/2000/svg" xmlns:xlink="http://www.w3.org/1999/xlink" x="0px" y="0px"
	 viewBox="0 0 595.3 841.9" style="enable-background:new 0 0 595.3 841.9;" xml:space="preserve">
<style type="text/css">
	.st0{fill:none;stroke:#FFFFFF;stroke-miterlimit:10;}
	.st1{fill:#FFFFFF;}
</style>
<g>
	<path id="rect3759" inkscape:connector-curvature="0" class="st0" d="M240.8,155.6h33.8v25.6h-33.8V155.6z"/>
	<path id="path2987" inkscape:connector-curvature="0" class="st1" d="M233,156.9c0,3.1-2.5,5.6-5.6,5.6c-3.1,0-5.6-2.5-5.6-5.6
		c0-3.1,2.5-5.6,5.6-5.6l0,0C230.5,151.3,233,153.8,233,156.9C233,156.9,233,156.9,233,156.9z"/>
	<path id="path3757" inkscape:connector-curvature="0" sodipodi:nodetypes="cccccccccccccccccccc" class="st1" d="M214.3,191.3
		v-22.1c1.3-3.6,2.3-4.5,4.6-5.5h5.9l2.8,4.2l2.8-4.2h4.8c4.6,1.7,5.3,3.7,5.4,7.1l4.7-3.2c2.2,0.5,2.4,1.8,2.4,3.5l-8.5,6.2
		c-1.6,0-2.2,0-3.2-1.6v-5h-1.6l0.1,20.6h-13.9v-20.6h-2v20.6H214.3z"/>
	<path id="path3761" inkscape:connector-curvature="0" sodipodi:nodetypes="ccccc" class="st1" d="M246.7,168.6l11.4-8.1
		c0.4,0.2,0.5,0.5,0.5,1l-11.5,7.9L246.7,168.6z"/>
</g>
</svg>
