<?xml version="1.0" encoding="utf-8"?>
<!-- Generator: Adobe Illustrator 22.0.1, SVG Export Plug-In . SVG Version: 6.00 Build 0)  -->
<svg version="1.1" id="圖層_1" xmlns="http://www.w3.org/2000/svg" xmlns:xlink="http://www.w3.org/1999/xlink" x="0px" y="0px"
	 viewBox="0 0 595.3 841.9" style="enable-background:new 0 0 595.3 841.9;" xml:space="preserve">
<style type="text/css">
	.st0{fill:#FFFFFF;}
</style>
<g id="Layer_2">
	<g>
		<g>
			<g>
				<g>
					<path class="st0" d="M222.6,354c-4.1,3.5-8.1,7-12.2,10.6c-2.6,2.2-5,3.1-5,6.5c0,3.3,0,6.6,0,9.8c0,1.3-0.4,3.9,0.7,5
						c1.1,1.2,3.6,0.7,5,0.7c2.7,0,5.3,0,8,0c0.2,0,0.4-0.2,0.4-0.4c0-2.8,0-5.6,0-8.4c0-0.5-0.4-3,0-3.5c-0.4,0.5,2.8,0.3,3.4,0.3
						c3.8,0,3.4-1,3.4,2.7c0,3,0,5.9,0,8.9c0,0.2,0.2,0.4,0.4,0.4c2.5,0,5,0,7.6,0c1.4,0,4.2,0.5,5.4-0.7c1-1.1,0.7-3.3,0.7-4.6
						c0-3.3,0-6.6,0-9.9c0-3.7-2.2-4.4-5-6.8c-4.1-3.5-8.1-7-12.2-10.6c-0.4-0.3-0.9,0.2-0.5,0.5c4.2,3.6,8.3,7.2,12.5,10.8
						c1.1,1,3.9,2.6,4.5,3.9c0.8,1.9,0,5.8,0,7.9c0,2.2,1.1,7.5-1.6,8.6c-2.1,0.8-6.1,0-8.3,0c-3.3,0-2.6,0.6-2.6-2.7
						c0-3,0-5.9,0-8.9c0-0.2-0.2-0.4-0.4-0.4c-2.5,0-5.1,0-7.6,0c-0.2,0-0.4,0.2-0.4,0.4c0,2.8,0,5.6,0,8.4c0,3.6,0.9,3.2-2.6,3.2
						c-2.2,0-6.3,0.8-8.3,0c-2.8-1.1-1.6-6.9-1.6-9.1c0-1.9-0.8-5.7,0-7.4c0.5-1.1,3.1-2.7,4.1-3.6c4.3-3.7,8.6-7.4,12.8-11.1
						C223.5,354.2,223,353.7,222.6,354z"/>
				</g>
			</g>
			<g>
				<g>
					<path class="st0" d="M246.7,365.4c-1.7-1.5-5.5-3.7-6.4-5.5c-0.9-1.9,0-6.8,0-9c0-1.2,0.5-3.7-0.5-4.6
						c-0.9-0.9-5.6-0.7-6.6-0.3c-1.9,0.8-1.2,3.1-1.2,4.8c0,0.6,0.2,1.6,0,2.2c-0.1,0.2,0.9,0.2,0.1-0.3c-1.5-0.9-2.8-2.5-4.1-3.6
						c-1.7-1.5-3.3-3.5-5.8-3c-1.7,0.3-3,1.8-4.2,2.9c-5.5,4.8-11,9.6-16.5,14.5c-0.8,0.7-2.8,1.8-2.8,3c-0.1,1.1,1.9,3.7,3,3.8
						c1.1,0.1,2.3-1.5,3.1-2.1c2.7-2.4,5.5-4.8,8.2-7.2c2.7-2.4,5.5-4.8,8.2-7.2c0.4-0.4,1.4-1.6,1.9-1.7c-0.4,0.1-0.1,0.1,0.6,0.8
						c5.8,5.3,11.8,10.3,17.7,15.5c0.7,0.7,1.8,2,2.9,1.9C246,369.9,247.5,367,246.7,365.4c-0.2-0.4-0.8,0-0.6,0.5
						c0.6,1.3-1.5,3.4-2.6,3.3c-0.4,0-1.2-1-1.4-1.3c-2.4-2.1-4.8-4.2-7.2-6.3c-3.9-3.4-7.8-6.9-11.8-10.3c-0.2-0.1-0.4-0.1-0.5,0
						c-4.5,4-9.1,7.9-13.6,11.9c-1.4,1.3-4.7,5.4-6.6,5.8c-0.8,0.2-2.6-0.7-2.8-1.9c-0.2-1.5,0.4-1.3,1.2-2.3
						c4.7-5.2,10.9-9.6,16.2-14.2c2.4-2.1,4.4-4.7,8.1-3c2.4,1.2,4.8,4.2,6.9,6.1c0.2,0.2,0.6,0.1,0.6-0.3c0-3.4-1.2-6.7,2.9-6.7
						c2.1,0,3.2-0.4,3.9,1.4c0.5,1.3,0,3.8,0,5.1c0,1.9-0.7,5.3,0.1,7.1c0.9,2,4.8,4.2,6.5,5.7C246.6,366.3,247.1,365.8,246.7,365.4
						z"/>
				</g>
			</g>
		</g>
	</g>
</g>
</svg>
